<?xml version="1.0" encoding="UTF-8"?>
<svg version="1.1" width="170.079pt" viewBox="0 0 170.079 170.079" xmlns:xlink="http://www.w3.org/1999/xlink" height="170.079pt" xmlns="http://www.w3.org/2000/svg" xmlns:inkscape="http://www.inkscape.org/namespaces/inkscape">
 <title>Logo EGU 2025</title>
 <defs>
  <clipPath id="Clip0">
   <path d="M0 0 L141.73 0 L141.73 141.732 L0 141.732 L0 0 Z"/>
  </clipPath>
  <clipPath id="Clip1">
   <path d="M0 0 L35.58 0 L35.58 14.84 L0 14.84 L0 0 Z"/>
  </clipPath>
 </defs>
 <g inkscape:label="Pozadí" id="Pozadí" inkscape:groupmode="layer"/>
 <g inkscape:label="Pozadí" id="Pozadí" inkscape:groupmode="layer">
  <g clip-rule="evenodd" clip-path="url(#Clip0)" id="Skupina5" transform="translate(14.1742, 14.1732) scale(1, 1)" style="fill:none; stroke:none">
   <path transform="translate(0, 0)" d="M141.73 0 L0 0 L0 53.7229 L25.5788 53.7267 L34.8432 73.2361 L0 73.2371 L7.04589 88.0621 L36.3559 88.0621 L45.639 107.576 L16.323 107.576 L23.2799 122.214 L58.1251 122.214 L67.4014 141.732 L141.73 141.73 L141.73 0 Z" style="fill:#0067a2; fill-rule:nonzero;stroke:none;"/>
   <g clip-rule="evenodd" clip-path="url(#Clip1)" transform="translate(42.8712, 9.41102) scale(2.49996, 2.49996)" style="fill:none; stroke:none">
    <path id="Text9+U0" transform="translate(0, 0)" d="M10.82 6.42 C10.82 6.24 10.84 6.02 10.84 5.8 C10.84 2.42 8.9 0 5.56 0 C2.28 0 0 2.5 0 5.62 C0 8.72 2.28 11.22 5.56 11.22 C7.68 11.22 9.46 10.34 10.46 8.98 L8.68 7.5 C8.08 8.32 7.02 8.84 5.88 8.84 C4.22 8.84 3.08 7.84 2.78 6.42 L10.82 6.42 L10.82 6.42 Z M5.56 2.22 C7.42 2.22 8.08 3.4 8.18 4.64 L2.8 4.64 C3.06 3.3 4.1 2.22 5.56 2.22 Z" style="fill:#ffffff; fill-rule:evenodd;stroke:none;"/>
    <path id="Text9+U1" transform="translate(12.12, 0)" d="M8.66 0.2 L8.66 0.82 C7.76 0.3 6.64 0 5.5 0 C2.46 0 0 2.12 0 5.36 C0 8.58 2.46 10.76 5.5 10.76 C6.62 10.76 7.66 10.48 8.54 10 C8.46 11.7 6.76 12.7 5.1 12.7 C3.6 12.7 2.6 12.38 1.42 12.06 L0.88 14.12 C2.56 14.6 3.08 14.84 5.76 14.84 C9.88 14.84 11.44 11.78 11.44 8.98 L11.44 0.2 L8.66 0.2 L8.66 0.2 Z M2.74 5.38 C2.74 3.74 4.12 2.5 5.98 2.5 C7.04 2.5 7.98 2.82 8.66 3.38 L8.66 7.38 C8 7.94 7.04 8.26 5.98 8.26 C4.12 8.26 2.74 7.1 2.74 5.38 Z" style="fill:#ffffff; fill-rule:evenodd;stroke:none;"/>
    <path id="Text9+U2" transform="translate(25.2, 0.2)" d="M7.6 0 L7.6 7.66 C6.96 8.2 6.14 8.52 5.14 8.52 C3.6 8.52 2.78 7.7 2.78 6.02 L2.78 0 L0 0 L0 6.02 C0 9.54 1.46 11.02 4.64 11.02 C5.76 11.02 6.78 10.7 7.6 10.14 L7.6 10.86 L10.38 10.86 L10.38 0 L7.6 0 Z" style="fill:#ffffff; fill-rule:evenodd;stroke:none;"/>
   </g>
  </g>
 </g>
</svg>
